# xmcd
#
# Track frame offsets:
#	150
#	20925
#	38400
#	53325
#	65850
#	79575
#	96787
#	108150
#	127200
#	140362
#	162225
#	177075
#	194250
#	207262
#	222975
#	240450
#	254475
#	273825
#	287848
#	296473
#	322160
#
# Disc length: 4460 seconds
#
# Revision: 0
# Processed by: cddbd v1.5.2PL0 Copyright (c) Steve Scherf et al.
# Submitted via: EasyCDDAExtractor 10.2.0.1
#
DISCID=3a116a15
DTITLE=the Hobohemians
DYEAR=1900
DGENRE=
TTITLE0=Hoedown in Hobohemia
TTITLE1=Stories
TTITLE2=Blow Your Whistle
TTITLE3=Feelin' So Gawd-Awful Blue
TTITLE4=Hold On To Your Hat
TTITLE5=Brothers
TTITLE6=I'll Be Right Home
TTITLE7=Not The Leavin' Kind
TTITLE8=The Crow in the Oak
TTITLE9=Circuit Rider
TTITLE10=How Can You?
TTITLE11=Mountain Railroad Blues
TTITLE12=Big Leg Stomp
TTITLE13=Mysteries
TTITLE14=Three Days
TTITLE15=Prison by the Sea
TTITLE16=Twenty Years
TTITLE17=Trader's Blues
TTITLE18=Mtn RR II
TTITLE19=The Lonesome Hobo's Blues
TTITLE20=Pennsylvania Bars
EXTD=
EXTT0=
EXTT1=
EXTT2=
EXTT3=
EXTT4=
EXTT5=
EXTT6=
EXTT7=
EXTT8=
EXTT9=
EXTT10=
EXTT11=
EXTT12=
EXTT13=
EXTT14=
EXTT15=
EXTT16=
EXTT17=
EXTT18=
EXTT19=
EXTT20=
PLAYORDER=
